<?xml version="1.0" encoding="utf-8"?>
<!-- Generator: Adobe Illustrator 27.6.1, SVG Export Plug-In . SVG Version: 6.00 Build 0)  -->
<svg version="1.1" id="Layer_1" xmlns="http://www.w3.org/2000/svg" xmlns:xlink="http://www.w3.org/1999/xlink" x="0px" y="0px"
	 viewBox="0 0 1280 1280" style="enable-background:new 0 0 1280 1280;" xml:space="preserve">
<style type="text/css">
	.st0{fill:#FF3E00;}
</style>
<g>
	<g>
		<path class="st0" d="M172.2,1235.2c-5.4,0-10.3-2.9-13-7.5s-2.7-10.4,0-15c9.8-17,241.1-416.5,247.3-426.4
			c3.5-5.7,4.5-11.9-2.1-23.7l-0.6-1.1c-20-35.3-40.6-71.9-58.4-109.3c-10.7-22.5-22.6-49-28.4-78.1c-5.3-26.5-4.1-54.3,3.6-82.6
			c6.3-29.2,19.5-54.3,32.9-77.1l62.2-105.7c2.7-4.6,7.6-7.4,12.9-7.4H695c5.4,0,10.3,2.9,13,7.5s2.7,10.4,0,15
			c-2.4,4.2-242.9,422-257.4,447.8c-2.8,5.1-2.1,6.2-0.7,8.6l3.7,6c10.2,16.6,20.8,33.7,30.1,51.3c5,9.4,10.5,18.9,15.8,28.1
			c16.4,28.4,33.5,57.8,40.4,92.9c9,45.7,3.6,91.5-16.5,140c-18.9,45.5-68.5,126.3-70.6,129.7c-2.7,4.4-7.6,7.1-12.8,7.1
			L172.2,1235.2L172.2,1235.2z"/>
	</g>
	<g>
		<path class="st0" d="M585.1,978.8c-5.4,0-10.3-2.9-13-7.5s-2.7-10.4,0-15c2.4-4.2,242.9-422,257.4-447.8c2.8-5.1,2.1-6.2,0.7-8.6
			l-3.7-6c-10.2-16.6-20.8-33.7-30.1-51.3c-5-9.4-10.5-18.9-15.8-28.1c-16.5-28.4-33.5-57.8-40.4-92.9c-9-45.7-3.6-91.5,16.5-140
			c18.9-45.5,68.5-126.3,70.6-129.7c2.7-4.4,7.6-7.1,12.8-7.1h267.6c5.4,0,10.3,2.9,13,7.5s2.7,10.4,0,15
			c-9.8,17-241.1,416.5-247.3,426.4c-3.5,5.7-4.5,11.9,2.1,23.7l0.6,1.1c20,35.3,40.6,71.9,58.5,109.4c10.7,22.5,22.6,49,28.4,78.1
			c5.3,26.5,4.1,54.3-3.6,82.6c-6.3,29.2-19.5,54.3-32.9,77.1l-62.2,105.7c-2.7,4.6-7.6,7.4-12.9,7.4H585.1z"/>
	</g>
</g>
</svg>
